<svg width="403" height="80" viewBox="0 0 403 80" fill="none" xmlns="http://www.w3.org/2000/svg">
<g clip-path="url(#clip0_114_3)">
<path d="M141.316 48.9273C141.316 56.5699 138.664 63.1604 133.359 68.6987C128.055 74.237 121.6 77.1341 113.996 77.3901C106.136 77.6451 99.2988 74.9096 93.4835 69.1838C87.6683 63.4579 84.8563 56.6765 85.0475 48.8394V2.51758H92.332V30.0249C97.6893 23.8487 104.386 20.6331 112.424 20.3781C120.267 20.0606 127.044 22.7667 132.753 28.4965C138.463 34.2263 141.317 41.0365 141.316 48.9273ZM134.03 48.4012C133.901 42.6578 131.799 37.7281 127.722 33.6122C123.645 29.4964 118.686 27.4385 112.844 27.4385C107.255 27.4385 102.473 29.4803 98.4958 33.5639C94.5189 37.6475 92.4643 42.5615 92.332 48.306C92.1408 54.3679 94.1954 59.617 98.4958 64.0533C102.796 68.4896 107.932 70.5793 113.903 70.3224C119.554 70.0674 124.336 67.8019 128.251 63.5258C132.166 59.2497 134.093 54.2082 134.03 48.4012Z" fill="#025E6F"/>
<path d="M195.953 52.7477C195.953 59.8149 193.668 65.7049 189.098 70.4177C184.528 75.1304 178.761 77.4863 171.797 77.4854C164.835 77.4854 159.068 75.1295 154.495 70.4177C149.922 65.7059 147.637 59.8159 147.641 52.7477V21.7145H154.926V53.6782C154.926 58.2699 156.613 62.2094 159.987 65.4968C163.36 68.7842 167.297 70.4269 171.797 70.425C176.295 70.425 180.232 68.7822 183.606 65.4968C186.981 62.2113 188.668 58.2718 188.667 53.6782V21.7145H195.953V52.7477Z" fill="#025E6F"/>
<path d="M252.319 76.1489H245.034V44.3494C245.034 39.7655 243.347 35.8177 239.973 32.5058C236.6 29.194 232.663 27.5386 228.163 27.5396C223.599 27.5396 219.628 29.195 216.251 32.5058C212.873 35.8167 211.186 39.7646 211.19 44.3494V76.1489H203.904V45.1084C203.904 38.0393 206.205 32.1654 210.806 27.4868C215.407 22.8082 221.192 20.468 228.161 20.466C235.062 20.466 240.814 22.8063 245.415 27.4868C250.016 32.1674 252.318 38.0412 252.319 45.1084V76.1489Z" fill="#025E6F"/>
<path d="M338.585 76.1489H331.013V42.7198C331.013 38.519 329.798 34.9214 327.37 31.927C324.941 28.9327 321.746 27.4365 317.783 27.4385C313.759 27.4385 310.292 28.7437 307.384 31.3541C304.476 33.9644 303.022 37.2118 303.022 41.0961V76.1489H295.353V41.0961C295.353 37.2128 293.9 33.9654 290.993 31.3541C288.086 28.7427 284.619 27.4375 280.592 27.4385C276.628 27.4385 273.464 28.919 271.101 31.8802C268.738 34.8413 267.556 38.456 267.555 42.7242V76.1533H259.983V43.5785C259.983 36.7673 261.932 31.2915 265.83 27.1512C269.473 23.2679 274.265 21.0698 280.208 20.5569C288.132 19.9209 294.456 23.2957 299.18 30.6814C303.909 23.2957 310.236 19.9209 318.16 20.5569C324.103 21.0668 328.928 23.265 332.635 27.1512C336.595 31.2915 338.576 36.7673 338.578 43.5785L338.585 76.1489Z" fill="#025E6F"/>
<path d="M403 51.4112H353.922C354.498 56.8869 356.83 61.4078 360.918 64.9736C365.007 68.5394 369.832 70.2906 375.393 70.2271C384.021 70.0991 390.188 66.1196 393.893 58.2884H401.657C399.612 64.1501 396.161 68.7983 391.305 72.2333C386.448 75.6682 381.049 77.4189 375.106 77.4853C367.629 77.6143 361.015 74.892 355.263 69.3186C349.512 63.7451 346.572 57.1092 346.445 49.4109C346.249 41.2622 349.141 34.2424 355.122 28.3514C361.103 22.4604 368.149 19.7386 376.259 20.1861C383.543 20.6316 389.87 23.624 395.239 29.1632C400.415 34.641 403.003 40.7537 403.003 47.5014L403 51.4112ZM395.811 44.7216C394.787 39.6278 392.391 35.5046 388.621 32.352C384.851 29.1994 380.346 27.5918 375.106 27.5293C369.865 27.4668 365.279 29.027 361.351 32.2098C357.422 35.3927 354.946 39.5633 353.922 44.7216H395.811Z" fill="#025E6F"/>
<path d="M34.4635 10.7107C43.2614 11.3716 41.2774 2.46335 45.0013 0.257903C39.8331 -0.681429 36.7225 1.06388 35.1547 3.57561C36.2975 6.25292 37.2343 9.11196 34.4635 10.7107Z" fill="#025E6F"/>
<path d="M27.7187 13.5082C24.9705 11.9861 21.8589 11.2364 18.7164 11.3394L0.466187 30.8294L27.7187 13.5082Z" fill="#025E6F"/>
<path d="M14.1189 74.9809L75.4172 31.6149C74.9294 29.0154 74.1397 26.4812 73.064 24.0636" fill="#025E6F"/>
<path d="M46.2292 79.8183L63.4073 69.6835C68.3313 63.4994 71.5816 57.5762 73.5553 52.0281" fill="#025E6F"/>
<path d="M71.3521 20.7283C70.1106 18.6064 68.6114 16.6451 66.8884 14.8886L7.9845 67.267L71.3521 20.7283Z" fill="#025E6F"/>
<path d="M49.9472 9.69812C42.5274 11.4478 36.8814 17.1498 31.2441 15.3781L0.139771 45.2726L49.9472 9.69812Z" fill="#025E6F"/>
<path d="M75.2437 45.9335C75.9208 42.6359 76.1606 39.264 75.957 35.9042L27.5305 79.808L75.2437 45.9335Z" fill="#025E6F"/>
<path d="M64.0662 12.4473C62.9374 11.6031 61.6927 10.925 60.3702 10.4338C59.0343 9.90632 57.6392 9.54171 56.2155 9.3479L3.17822 56.9739L64.0662 12.4473Z" fill="#025E6F"/>
</g>
<defs>
<clipPath id="clip0_114_3">
<rect width="403" height="80" fill="white"/>
</clipPath>
</defs>
</svg>
